<svg width="42" height="42" viewBox="0 0 42 42" fill="none" xmlns="http://www.w3.org/2000/svg">
<path fill-rule="evenodd" clip-rule="evenodd" d="M21 42C32.598 42 42 32.598 42 21C42 9.40202 32.598 0 21 0C9.40202 0 0 9.40202 0 21C0 32.598 9.40202 42 21 42ZM6.3 20.9996C6.3 16.3606 10.0352 12.5996 14.6428 12.5996C19.2505 12.5996 22.9856 16.3603 22.9856 20.9996C22.9856 25.6389 19.2501 29.3996 14.6428 29.3996C10.0355 29.3996 6.3 25.6386 6.3 20.9996ZM23.7946 20.9997C23.7946 16.633 25.662 13.0917 27.9658 13.0917H27.9659C30.2699 13.0917 32.1372 16.6318 32.1372 20.9997H32.1375C32.1375 25.3667 30.2699 28.9081 27.9661 28.9081C25.6622 28.9081 23.7946 25.3665 23.7946 20.9997ZM32.947 20.9997C32.947 17.0874 33.6038 13.9154 34.4138 13.9154H34.4139C35.224 13.9154 35.881 17.0871 35.881 20.9996C35.881 24.9113 35.2243 28.0841 34.4138 28.0841C33.6034 28.0841 32.947 24.9121 32.947 20.9997Z" fill="#D9D9D9"/>
</svg>
