<svg width="42" height="42" viewBox="0 0 42 42" fill="none" xmlns="http://www.w3.org/2000/svg">
<path fill-rule="evenodd" clip-rule="evenodd" d="M21 42C32.598 42 42 32.598 42 21C42 9.40202 32.598 0 21 0C9.40202 0 0 9.40202 0 21C0 32.598 9.40202 42 21 42ZM30.6829 12.2408C30.6983 12.2471 30.711 12.2588 30.7187 12.2736C33.8313 16.85 35.3686 22.0123 34.7937 27.9552C34.7926 27.9678 34.7888 27.9799 34.7827 27.9908C34.7765 28.0017 34.768 28.0112 34.7579 28.0186C32.6746 29.5615 30.3433 30.7376 27.8643 31.4961C27.8468 31.5015 27.828 31.5012 27.8107 31.4953C27.7933 31.4894 27.7783 31.4782 27.7676 31.4633C27.2433 30.736 26.7731 29.9712 26.3607 29.1751C26.3551 29.1641 26.3518 29.152 26.3511 29.1397C26.3504 29.1273 26.3524 29.115 26.3568 29.1034C26.3612 29.0918 26.368 29.0814 26.3768 29.0726C26.3855 29.0639 26.396 29.0571 26.4076 29.0527C27.1522 28.7728 27.8717 28.4304 28.5587 28.0294C28.5711 28.022 28.5816 28.0116 28.5891 27.9992C28.5965 27.9867 28.6008 27.9727 28.6016 27.9582C28.6023 27.9437 28.5995 27.9292 28.5934 27.9161C28.5872 27.903 28.5779 27.8916 28.5663 27.8829C28.4207 27.7746 28.2762 27.661 28.1382 27.5472C28.1258 27.5371 28.1107 27.5306 28.0947 27.5287C28.0787 27.5268 28.0626 27.5294 28.048 27.5363C23.5907 29.5949 18.7072 29.5949 14.1964 27.5363C14.1819 27.5298 14.1659 27.5275 14.1502 27.5296C14.1345 27.5318 14.1196 27.5382 14.1074 27.5483C13.9694 27.662 13.8249 27.7746 13.6804 27.8829C13.6688 27.8917 13.6596 27.9031 13.6536 27.9163C13.6475 27.9295 13.6448 27.944 13.6456 27.9585C13.6465 27.9729 13.6509 27.987 13.6585 27.9994C13.666 28.0117 13.6765 28.0221 13.6891 28.0294C14.3776 28.4271 15.0965 28.7696 15.8391 29.0538C15.8507 29.058 15.8612 29.0646 15.87 29.0732C15.8789 29.0819 15.8857 29.0922 15.8903 29.1037C15.8948 29.1152 15.8968 29.1274 15.8962 29.1397C15.8956 29.1521 15.8925 29.1641 15.8869 29.1751C15.4813 29.9756 15.0104 30.7414 14.4789 31.4646C14.4679 31.4791 14.4528 31.4899 14.4355 31.4956C14.4182 31.5012 14.3996 31.5015 14.3822 31.4962C11.9077 30.7351 9.58042 29.5592 7.49976 28.0186C7.48976 28.0108 7.48144 28.0011 7.47528 27.99C7.46912 27.979 7.46525 27.9668 7.4639 27.9542C6.98371 22.8137 7.96255 17.6087 11.5358 12.2725C11.5445 12.2584 11.5574 12.2473 11.5727 12.2408C13.3595 11.4202 15.2455 10.8355 17.1831 10.5014C17.2007 10.4987 17.2187 10.5013 17.2348 10.5089C17.2509 10.5165 17.2643 10.5287 17.2733 10.5441C17.536 11.0088 17.7729 11.4877 17.9828 11.9785C20.0712 11.6614 22.1956 11.6614 24.284 11.9785C24.4925 11.4889 24.7257 11.0102 24.9824 10.5441C24.9911 10.5284 25.0044 10.5158 25.0206 10.5082C25.0368 10.5005 25.055 10.4982 25.0726 10.5014C27.01 10.8362 28.8959 11.4209 30.6829 12.2408ZM14.0835 22.0473C14.0835 23.5779 15.2025 24.8241 16.5605 24.8241C17.9402 24.8241 19.0376 23.5779 19.0376 22.0472C19.0593 20.5276 17.9511 19.2704 16.5605 19.2704C15.1808 19.2704 14.0835 20.5167 14.0835 22.0473ZM23.242 22.0473C23.242 23.5779 24.361 24.8241 25.719 24.8241C27.1096 24.8241 28.1961 23.5779 28.1961 22.0472C28.2178 20.5276 27.1096 19.2704 25.719 19.2704C24.3393 19.2704 23.242 20.5167 23.242 22.0473Z" fill="#D9D9D9"/>
</svg>
