<svg width="43" height="42" viewBox="0 0 43 42" fill="none" xmlns="http://www.w3.org/2000/svg">
<path fill-rule="evenodd" clip-rule="evenodd" d="M21.2556 42C32.8536 42 42.2556 32.598 42.2556 21C42.2556 9.40202 32.8536 0 21.2556 0C9.65764 0 0.255615 9.40202 0.255615 21C0.255615 32.598 9.65764 42 21.2556 42ZM14.8003 21.0004C14.8003 17.4241 17.6849 14.5394 21.2612 14.5394C24.8375 14.5394 27.7222 17.4241 27.7222 21.0004C27.7222 24.5767 24.8375 27.4614 21.2612 27.4614C17.6849 27.4614 14.8003 24.5767 14.8003 21.0004ZM17.0608 21.0004C17.0608 23.3171 18.9501 25.2009 21.2612 25.2009C23.5723 25.2009 25.4617 23.3171 25.4617 21.0004C25.4617 18.6837 23.578 16.7999 21.2612 16.7999C18.9445 16.7999 17.0608 18.6837 17.0608 21.0004ZM27.9865 15.7821C28.8187 15.7821 29.4935 15.113 29.4935 14.2751C29.4935 13.4429 28.8187 12.7681 27.9865 12.7681C27.1543 12.7681 26.4795 13.4429 26.4795 14.2751C26.4795 15.1074 27.1486 15.7821 27.9865 15.7821ZM31.7371 10.5245C33.216 11.9978 33.6771 13.7859 33.7727 15.8046C33.8908 17.8852 33.8908 24.1156 33.7727 26.1961C33.6715 28.2148 33.2104 30.003 31.7371 31.4763C30.2638 32.9551 28.4757 33.4162 26.457 33.5118C24.3764 33.6299 18.1404 33.6299 16.0598 33.5118C14.0411 33.4106 12.2586 32.9495 10.7797 31.4763C9.30086 30.003 8.83976 28.2148 8.74417 26.1961C8.62609 24.1156 8.62609 17.8796 8.74417 15.799C8.84539 13.7803 9.30086 11.9922 10.7797 10.5189C12.2586 9.04564 14.0468 8.58455 16.0598 8.48895C18.1404 8.37087 24.3764 8.37087 26.457 8.48895C28.4757 8.59017 30.2638 9.05127 31.7371 10.5245ZM28.6894 30.824C29.7971 30.3798 30.6462 29.5307 31.0848 28.4285C31.6491 27.0105 31.6177 23.9088 31.5973 21.8982C31.594 21.5647 31.5909 21.2612 31.5909 21.0004C31.5909 20.7395 31.594 20.4361 31.5974 20.1027C31.6177 18.0931 31.6491 14.995 31.0848 13.5723C30.6406 12.4645 29.7915 11.6154 28.6894 11.1768C27.2669 10.6156 24.1502 10.6455 22.1401 10.6647C21.8141 10.6679 21.5171 10.6707 21.2612 10.6707C21.0004 10.6707 20.6969 10.6676 20.3635 10.6643C18.354 10.6439 15.2559 10.6125 13.8331 11.1768C12.7253 11.621 11.8762 12.4701 11.4376 13.5723C10.8764 14.9947 10.9063 18.1114 10.9256 20.1215C10.9287 20.4476 10.9316 20.7445 10.9316 21.0004C10.9316 21.2613 10.9285 21.5647 10.9251 21.8981C10.9048 23.9077 10.8734 27.0058 11.4376 28.4285C11.8819 29.5363 12.731 30.3854 13.8331 30.824C15.2555 31.3852 18.3723 31.3553 20.3823 31.336C20.7084 31.3329 21.0054 31.3301 21.2612 31.3301C21.5221 31.3301 21.8255 31.3331 22.159 31.3365C24.1685 31.3569 27.2666 31.3883 28.6894 30.824Z" fill="#D9D9D9"/>
</svg>
