<svg width="42" height="42" viewBox="0 0 42 42" fill="none" xmlns="http://www.w3.org/2000/svg">
<path fill-rule="evenodd" clip-rule="evenodd" d="M21 42C32.598 42 42 32.598 42 21C42 9.40202 32.598 0 21 0C9.40202 0 0 9.40202 0 21C0 32.598 9.40202 42 21 42ZM30.6486 16.6057C30.6486 16.3852 30.6486 16.1646 30.6329 15.9442C31.6234 15.2196 32.4883 14.3219 33.18 13.3139C32.2681 13.7076 31.2775 13.9912 30.2555 14.1014C31.3089 13.4715 32.1108 12.4792 32.4882 11.2979C31.5133 11.8807 30.4127 12.3059 29.2649 12.5264C28.3372 11.5342 27.0164 10.9199 25.5542 10.9199C22.7397 10.9199 20.4755 13.2036 20.4755 16.0072C20.4755 16.4009 20.5227 16.7946 20.6013 17.1726C16.3875 16.9521 12.6295 14.9361 10.1295 11.8491C9.68924 12.6052 9.43771 13.4714 9.43771 14.4164C9.43771 16.1804 10.3339 17.7396 11.7018 18.6531C10.8686 18.6217 10.0823 18.3854 9.40625 18.0074V18.0704C9.40625 20.5432 11.1516 22.5906 13.4787 23.0632C13.0542 23.1734 12.5981 23.2364 12.1422 23.2364C11.812 23.2364 11.4975 23.2049 11.183 23.1577C11.8277 25.1737 13.6988 26.6384 15.9315 26.6857C14.1862 28.0559 12.0006 28.8592 9.62642 28.8592C9.20186 28.8592 8.80882 28.8434 8.39999 28.7962C10.6484 30.2451 13.3214 31.0799 16.1988 31.0799C25.5385 31.0799 30.6486 23.3309 30.6486 16.6057Z" fill="#D9D9D9"/>
</svg>
