<svg width="43" height="42" viewBox="0 0 43 42" fill="none" xmlns="http://www.w3.org/2000/svg">
<path fill-rule="evenodd" clip-rule="evenodd" d="M21.2556 42C32.8536 42 42.2556 32.598 42.2556 21C42.2556 9.40202 32.8536 0 21.2556 0C9.65764 0 0.255615 9.40202 0.255615 21C0.255615 32.598 9.65764 42 21.2556 42ZM31.5475 12.1153C32.704 12.4264 33.6148 13.3432 33.924 14.5072C34.4856 16.6171 34.4856 21.0191 34.4856 21.0191C34.4856 21.0191 34.4856 25.4211 33.924 27.531C33.6148 28.695 32.704 29.5736 31.5475 29.8847C29.4512 30.45 21.0456 30.45 21.0456 30.45C21.0456 30.45 12.64 30.45 10.5438 29.8847C9.38728 29.5736 8.47644 28.695 8.16729 27.531C7.60561 25.4211 7.60561 21.0191 7.60561 21.0191C7.60561 21.0191 7.60561 16.6171 8.16729 14.5072C8.47644 13.3432 9.38728 12.4265 10.5438 12.1153C12.64 11.55 21.0456 11.55 21.0456 11.55C21.0456 11.55 29.4513 11.55 31.5475 12.1153ZM25.3219 21.0192L18.2965 17.0224V25.0158L25.3219 21.0192Z" fill="#D9D9D9"/>
</svg>
